Coordinates
version=1
nRows=17
nColumns=24
inDegrees=yes

Units are S.I. units (second, meters, Newtons, ...)
Angles are in degrees.

endheader
time	torso_tilt	torso_list	torso_rotation	torso_tx	torso_ty	torso_tz	lumbar_extension	lumbar_bending	lumbar_rotation	hip_flexion_r	hip_adduction_r	hip_rotation_r	knee_angle_r	ankle_angle_r	subtalar_angle_r	mtp_angle_r	hip_flexion_l	hip_adduction_l	hip_rotation_l	knee_angle_l	ankle_angle_l	subtalar_angle_l	mtp_angle_l
     45.72000000	    -10.51402145	      0.60514719	     -1.14597519	     -0.10269062	      1.24979234	      0.03055428	     13.19321170	     -2.09825340	     -0.07010870	     -6.54353475	      7.01052226	     -0.47842584	     -8.20726569	     10.60837889	     -2.71796370	      0.00000000	     26.69282844	     -2.20463293	     -1.49379163	    -51.77312607	      2.30155005	     -6.25716867	      0.00000000
     45.73000000	    -10.62988485	      0.62139935	     -1.08275429	     -0.10330134	      1.24955301	      0.03043248	     13.17206658	     -2.09285541	     -0.34017018	     -7.06708258	      6.91650867	     -0.29730221	     -8.13621569	     10.79447932	     -2.28606815	      0.00000000	     26.93064356	     -2.15763514	     -1.43753806	    -48.33780187	      1.98860341	     -6.15702755	      0.00000000
     45.74000000	    -10.74818569	      0.65266515	     -1.01587780	     -0.10385966	      1.24900406	      0.03024723	     13.13553623	     -2.20573554	     -0.58919272	     -7.62191867	      6.92681860	     -0.03045855	     -7.94005689	     10.95456101	     -2.17625944	      0.00000000	     27.10520900	     -2.20748372	     -1.31273054	    -44.76685876	      1.59786251	     -5.98115341	      0.00000000
     45.75000000	    -10.87649629	      0.68850122	     -0.96709878	     -0.10434908	      1.24816879	      0.03005022	     13.12398187	     -2.38575682	     -0.77521258	     -8.24465067	      7.04276333	      0.31408329	     -7.64689300	     11.11640877	     -2.25300301	      0.00000000	     27.17306881	     -2.32092544	     -1.12182106	    -41.11580867	      1.24807546	     -5.64490299	      0.00000000
     45.76000000	    -10.98948561	      0.73957736	     -0.93543360	     -0.10478872	      1.24741856	      0.02979634	     13.05518112	     -2.58463220	     -0.94297848	     -8.79258375	      7.12046186	      0.48091310	     -7.42519459	     11.29580666	     -2.04745775	      0.00000000	     27.13724074	     -2.44159857	     -0.99686428	    -37.25371408	      0.96146765	     -5.33643709	      0.00000000
     45.77000000	    -11.09904468	      0.80157530	     -0.91195280	     -0.10513527	      1.24654029	      0.02947386	     12.97845095	     -2.81915247	     -1.06117020	     -9.37017022	      7.20954993	      0.53007691	     -7.12375154	     11.47260230	     -1.69464245	      0.00000000	     26.99454099	     -2.56044376	     -0.77424281	    -33.27093092	      0.92470339	     -4.77110291	      0.00000000
     45.78000000	    -11.21439375	      0.88386950	     -0.89723521	     -0.10542307	      1.24547752	      0.02907537	     12.90357230	     -3.11810353	     -1.16851996	     -9.93612976	      7.32538371	      0.48861075	     -6.85599278	     11.63250049	     -1.24140440	      0.00000000	     26.75313478	     -2.73141099	     -0.58491729	    -29.23545640	      1.01382586	     -4.01500242	      0.00000000
     45.79000000	    -11.32622839	      0.96868224	     -0.88254280	     -0.10566291	      1.24425956	      0.02866396	     12.81544073	     -3.44365128	     -1.23388598	    -10.52735292	      7.47477657	      0.42369612	     -6.54079417	     11.80473058	     -0.75987816	      0.00000000	     26.44080950	     -2.91019940	     -0.42232192	    -25.18569525	      1.27405281	     -3.13728173	      0.00000000
     45.80000000	    -11.42110114	      1.06064904	     -0.89816058	     -0.10581279	      1.24313792	      0.02820800	     12.66928628	     -3.80876984	     -1.24495316	    -11.02999260	      7.65821759	      0.29801623	     -6.27223647	     11.93624212	     -0.29453675	      0.00000000	     26.09620163	     -3.13035082	     -0.34075169	    -21.13992955	      1.52724355	     -2.29862003	      0.00000000
     45.81000000	    -11.51445072	      1.14095957	     -0.90065302	     -0.10585554	      1.24176536	      0.02770390	     12.49022060	     -4.19807123	     -1.20692117	    -11.51463932	      7.89540796	      0.20473053	     -6.00789913	     12.06438690	     -0.03551789	      0.00000000	     25.72792104	     -3.34803672	     -0.22424526	    -17.17668215	      1.77032773	     -1.47764263	      0.00000000
     45.82000000	    -11.60575371	      1.22951119	     -0.92093527	     -0.10590686	      1.24014703	      0.02718517	     12.34670170	     -4.60690874	     -1.14095836	    -12.00476201	      8.17346449	      0.13575397	     -5.86594522	     12.13018581	      0.13157661	      0.00000000	     25.36232697	     -3.58810247	     -0.20846193	    -13.56618539	      2.09997392	     -0.98788617	      0.00000000
     45.83000000	    -11.67019226	      1.32599784	     -0.92373171	     -0.10590522	      1.23866736	      0.02657722	     12.16596402	     -4.99508187	     -1.07134447	    -12.42934754	      8.40471562	      0.04972584	     -5.84144706	     12.25158090	      0.40443599	      0.00000000	     25.06796027	     -3.76274509	     -0.28861922	    -10.38794170	      2.37415292	     -0.32314541	      0.00000000
     45.84000000	    -11.72845880	      1.41510392	     -0.93843521	     -0.10583848	      1.23718419	      0.02596780	     12.00597469	     -5.29507124	     -0.97927211	    -12.83409272	      8.55303398	     -0.04282162	     -5.91198047	     12.27499561	      0.79840692	      0.00000000	     24.76710116	     -3.85141314	     -0.37314798	     -7.70004371	      2.81405770	     -0.31636554	      0.00000000
     45.85000000	    -11.76023250	      1.49961077	     -0.93903238	     -0.10566196	      1.23577060	      0.02532403	     11.81797649	     -5.51486330	     -0.94331658	    -13.18940725	      8.59210263	     -0.02361255	     -6.08111988	     12.37414238	      0.98036853	      0.00000000	     24.48268915	     -3.84128780	     -0.66168014	     -5.46189104	      3.19176948	      0.15507699	      0.00000000
     45.86000000	    -11.79806180	      1.58147896	     -0.96875876	     -0.10546132	      1.23429702	      0.02461590	     11.86947877	     -5.66047279	     -0.94242755	    -13.74810734	      8.53265309	     -0.03411076	     -6.40075568	     12.44800547	      1.25574336	      0.00000000	     23.99588418	     -3.73006571	     -1.47058813	     -3.83157855	      3.52808797	      1.96711670	      0.00000000
     45.87000000	    -11.79181187	      1.65466527	     -1.01784884	     -0.10514481	      1.23310968	      0.02392663	     11.83250236	     -5.74509933	     -0.95132762	    -14.21649455	      8.41727554	     -0.02499216	     -6.81162919	     12.43799592	      1.38819909	      0.00000000	     23.67105201	     -3.60632843	     -2.35033094	     -3.01477460	      4.36322599	      2.03172567	      0.00000000
     45.88000000	    -11.77429409	      1.72416897	     -1.04577137	     -0.10473874	      1.23179565	      0.02316394	     11.84967652	     -5.80622898	     -0.98905102	    -14.72909207	      8.25586151	     -0.03126423	     -7.31044194	     12.53107608	      1.69692620	      0.00000000	     23.45189585	     -3.41061509	     -3.45853605	     -3.06249814	      5.09162300	      3.12609560	      0.00000000
